<svg xmlns="http://www.w3.org/2000/svg" width="240" height="240" viewBox="0 0 240 240">
  <rect width="240" height="240" fill="#ffffff"/>
  <rect x="16" y="16" width="64" height="64" fill="#000000"/>
  <rect x="24" y="24" width="48" height="48" fill="#ffffff"/>
  <rect x="32" y="32" width="32" height="32" fill="#000000"/>
  <rect x="160" y="16" width="64" height="64" fill="#000000"/>
  <rect x="168" y="24" width="48" height="48" fill="#ffffff"/>
  <rect x="176" y="32" width="32" height="32" fill="#000000"/>
  <rect x="16" y="160" width="64" height="64" fill="#000000"/>
  <rect x="24" y="168" width="48" height="48" fill="#ffffff"/>
  <rect x="32" y="176" width="32" height="32" fill="#000000"/>
  <rect x="96" y="96" width="16" height="16" fill="#000000"/>
  <rect x="128" y="96" width="16" height="16" fill="#000000"/>
  <rect x="96" y="112" width="16" height="16" fill="#000000"/>
  <rect x="112" y="112" width="16" height="16" fill="#000000"/>
  <rect x="144" y="112" width="16" height="16" fill="#000000"/>
  <rect x="128" y="128" width="16" height="16" fill="#000000"/>
  <rect x="160" y="128" width="16" height="16" fill="#000000"/>
  <rect x="176" y="144" width="16" height="16" fill="#000000"/>
  <rect x="144" y="160" width="16" height="16" fill="#000000"/>
</svg>
