<?xml version="1.0" standalone="no"?><!DOCTYPE svg PUBLIC "-//W3C//DTD SVG 1.1//EN" "http://www.w3.org/Graphics/SVG/1.1/DTD/svg11.dtd"><svg t="1765458993330" class="icon" viewBox="0 0 1024 1024" version="1.1" xmlns="http://www.w3.org/2000/svg" p-id="4622" xmlns:xlink="http://www.w3.org/1999/xlink" width="48" height="48"><path d="M113.389268 152.046517c0-22.069448 17.891528-39.960976 39.960976-39.960976h279.726829c22.069448 0 39.960976 17.891528 39.960976 39.960976v279.726829c0 22.070447-17.891528 39.960976-39.960976 39.960976H153.350244c-22.069448 0-39.960976-17.890529-39.960976-39.960976v-279.726829z m75.925854 243.761951h207.797073v-207.797073H189.315122v207.797073zM552.96 152.046517c0-22.069448 17.891528-39.960976 39.960976-39.960976h279.726829c22.069448 0 39.960976 17.891528 39.960975 39.960976v279.726829c0 22.070447-17.891528 39.960976-39.960975 39.960976H592.920976c-22.069448 0-39.960976-17.890529-39.960976-39.960976v-279.726829z m75.925854 243.761951h207.797073v-207.797073H628.885854v207.797073zM153.350244 551.656273c-22.069448 0-39.960976 17.891528-39.960976 39.960976v279.726829c0 22.070447 17.891528 39.960976 39.960976 39.960976h279.726829c22.069448 0 39.960976-17.890529 39.960976-39.960976v-279.726829c0-22.069448-17.891528-39.960976-39.960976-39.960976H153.350244z m35.964878 75.925854h207.797073v207.797073H189.315122v-207.797073zM552.96 591.617249c0-22.069448 17.891528-39.960976 39.960976-39.960976h279.726829c22.069448 0 39.960976 17.891528 39.960975 39.960976v279.726829c0 22.070447-17.891528 39.960976-39.960975 39.960976H592.920976c-22.069448 0-39.960976-17.890529-39.960976-39.960976v-279.726829z m75.925854 243.761951h207.797073v-207.797073H628.885854v207.797073z" p-id="4623" fill="#f59e0b"></path></svg>