<?xml version="1.0" standalone="no"?><!DOCTYPE svg PUBLIC "-//W3C//DTD SVG 1.1//EN" "http://www.w3.org/Graphics/SVG/1.1/DTD/svg11.dtd"><svg t="1765199745207" class="icon" viewBox="0 0 1024 1024" version="1.1" xmlns="http://www.w3.org/2000/svg" p-id="34982" xmlns:xlink="http://www.w3.org/1999/xlink" width="48" height="48"><path d="M300.05592 0h423.88816c200.041092 0 300.05592 100.014829 300.05592 300.05592v423.88816c0 200.041092-100.014829 300.05592-300.05592 300.05592H300.05592C100.014829 1024 0 923.973737 0 723.94408V300.05592C0 100.014829 100.014829 0 300.05592 0z" fill="#6C6CEA" opacity=".15" p-id="34983"></path><path d="M231.359328 227.425968m35.594623 0l178.281834 0q35.594622 0 35.594623 35.594622l0 178.281835q0 35.594622-35.594623 35.594623l-178.281834 0q-35.594622 0-35.594623-35.594623l0-178.281835q0-35.594622 35.594623-35.594622Z" fill="#6C6CEA" p-id="34984"></path><path d="M543.62696 227.425968m35.594622 0l178.281835 0q35.594622 0 35.594622 35.594622l0 178.281835q0 35.594622-35.594622 35.594623l-178.281835 0q-35.594622 0-35.594622-35.594623l0-178.281835q0-35.594622 35.594622-35.594622Z" fill="#6C6CEA" p-id="34985"></path><path d="M231.359328 536.091831m35.594623 0l178.281834 0q35.594622 0 35.594623 35.594622l0 178.281835q0 35.594622-35.594623 35.594622l-178.281834 0q-35.594622 0-35.594623-35.594622l0-178.281835q0-35.594622 35.594623-35.594622Z" fill="#6C6CEA" p-id="34986"></path><path d="M543.62696 536.091831m35.594622 0l178.281835 0q35.594622 0 35.594622 35.594622l0 178.281835q0 35.594622-35.594622 35.594622l-178.281835 0q-35.594622 0-35.594622-35.594622l0-178.281835q0-35.594622 35.594622-35.594622Z" fill="#6C6CEA" p-id="34987"></path><path d="M720.342311 765.427308c-1.212024 0-2.229666-0.034303-2.984323-0.068605h-59.583545c-11.365581 0-20.581536-9.215954-20.581536-20.581536s9.215954-20.581536 20.581536-20.581535h61.138595l0.468801 0.045737c4.482201 0.205815 9.879137-1.086248 11.25124-2.286838 0.057171-0.194381 0.160079-0.686051 0.160078-1.589352v-56.244763c0-11.365581 9.215954-20.581536 20.581536-20.581535s20.581536 9.215954 20.581536 20.581535v56.244763c0 12.669079-4.56224 23.611595-13.195052 31.649828-12.771986 11.891554-30.231989 13.435169-38.418866 13.435169z" fill="#FFFFFF" p-id="34988"></path></svg>