<?xml version="1.0" standalone="no"?><!DOCTYPE svg PUBLIC "-//W3C//DTD SVG 1.1//EN" "http://www.w3.org/Graphics/SVG/1.1/DTD/svg11.dtd"><svg t="1766231612047" class="icon" viewBox="0 0 1024 1024" version="1.1" xmlns="http://www.w3.org/2000/svg" p-id="16773" xmlns:xlink="http://www.w3.org/1999/xlink" width="48" height="48"><path d="M0 0m170.666667 0l682.666666 0q170.666667 0 170.666667 170.666667l0 682.666666q0 170.666667-170.666667 170.666667l-682.666666 0q-170.666667 0-170.666667-170.666667l0-682.666666q0-170.666667 170.666667-170.666667Z" fill="#EDB369" p-id="16774"></path><path d="M322.389333 234.666667v557.525333H256V234.666667h66.389333z m132.693334 0v557.525333H388.778667V234.666667h66.389333z m132.778666 0v557.525333h-66.389333V234.666667h66.389333z m132.693334 0v557.525333h-66.346667V234.666667h66.389333zM853.333333 461.056v104.746667h-66.389333v-104.746667H853.333333z" fill="#FFFFFF" p-id="16775"></path><path d="M256 724.821333h66.389333v67.370667H256z" fill="#FF0000" p-id="16776"></path></svg>