<?xml version="1.0" standalone="no"?><!DOCTYPE svg PUBLIC "-//W3C//DTD SVG 1.1//EN" "http://www.w3.org/Graphics/SVG/1.1/DTD/svg11.dtd"><svg t="1765457878386" class="icon" viewBox="0 0 1024 1024" version="1.1" xmlns="http://www.w3.org/2000/svg" p-id="4458" xmlns:xlink="http://www.w3.org/1999/xlink" width="48" height="48"><path d="M598.16985 108.68686c22.368156-22.368156 58.63474-22.368156 81.002895 0l119.044746 119.044746c22.368156 22.368156 22.368156 58.63374 0 81.001896L362.379114 744.572878a57.278064 57.278064 0 0 1-33.840952 16.386997l-128.875145 15.089265c-35.777061 4.18791-66.494064-25.294299-63.77472-61.212223l10.179059-134.482669a57.284059 57.284059 0 0 1 16.612777-36.178669l435.489717-435.488719zM552.260683 256.319688l98.32398 98.322981 86.409616-86.409615-98.322981-98.323981L552.260683 256.319688z m47.461651 149.185311l-98.322982-98.32398-284.01664 284.017639-8.42777 111.341268 106.162326-12.429862 284.605066-284.605065zM896.124878 930.842974H128.874146v-71.929756h767.250732v71.929756z" p-id="4459"></path></svg>