<?xml version="1.0" standalone="no"?><!DOCTYPE svg PUBLIC "-//W3C//DTD SVG 1.1//EN" "http://www.w3.org/Graphics/SVG/1.1/DTD/svg11.dtd"><svg t="1765505436420" class="icon" viewBox="0 0 1024 1024" version="1.1" xmlns="http://www.w3.org/2000/svg" p-id="3682" xmlns:xlink="http://www.w3.org/1999/xlink" width="48" height="48"><path d="M159.745998 112.495141a41.845136 41.845136 0 0 0-21.922591 5.996145c-6.629526 4.000094-12.007274 9.781448-15.460902 16.71168l-0.252753 0.508503L112.390244 160.084667l203.613159 247.626178V757.240507l0.000999 0.094908a43.277737 43.277737 0 0 0 5.279844 20.105365 44.199836 44.199836 0 0 0 13.996332 15.408953l0.00999 0.006993 0.003996 0.002997 0.000999 0.000999 0.005994 0.003996h0.000999l0.001998 0.001998 0.005994 0.003996 0.003996 0.001998 0.002997 0.002997 167.263657 112.915731 0.511501 0.285721a44.588457 44.588457 0 0 0 14.547793 5.055063v0.581433h13.077229v-0.576437a44.668379 44.668379 0 0 0 9.566658-2.664398 44.09394 44.09394 0 0 0 14.271063-9.285932 43.152859 43.152859 0 0 0 9.621604-14.021308 42.509487 42.509487 0 0 0 3.39968-16.646743V407.73582l190.240218-229.798587 15.531833-21.751758-23.76779-43.690334H159.745998z m232.535914 627.440266V380.865061L235.410107 188.647774h414.418295L490.046439 380.794131v426.120866l-97.764527-66.97959z" p-id="3683"></path><path d="M647.867317 512.05095l263.590587 0.50151 0.151852-79.921951-263.590587-0.50151-0.151852 79.921951zM647.867317 660.707778l263.590587 0.50151 0.151852-79.921951-263.590587-0.501511-0.151852 79.921952zM911.457904 809.866115L647.867317 809.364605l0.151852-79.921951 263.590587 0.50151-0.151852 79.921951z" p-id="3684"></path></svg>