<svg xmlns="http://www.w3.org/2000/svg" width="200" height="200" viewBox="0 0 1024 1024">
    <path d="M0 0h1024v1024H0z" fill="#AB1E25"/>
    <path d="M466.24 189.248c7.936 0-16.704-61.248-16.704-61.248s-86.976 38.528-92.224 42.88c-5.312 4.352 101.12 18.368 108.992 18.368z m-53.76 45.44l55.36-34.112c-13.44 1.792-121.984-22.72-121.984-22.72 1.792 5.248 52.736 56.832 52.736 56.832h13.888z m80.192 13.184l-15.872-37.632-45.696 27.968 61.568 9.6z m-118.72-18.816l-38.656-45.056s-30.72 20.992-26.368 26.24c4.416 5.248 65.024 18.752 65.024 18.752z m-44.8 5.632c15.808 11.392 52.736 59.52 52.736 59.52l-14.08-46.336-38.656-13.184z m69.44 72.64l63.296-47.296-84.416-12.16s21.12 48.896 21.12 59.456z m72.96-42.88l-59.072 50.752c16.448 3.456 70.464 23.552 70.464 23.552 3.52-57.664-11.392-74.304-11.392-74.304z m21.12 71.68s86.08-48.064 92.224-50.688l-101.376-20.992s22.336 31.488 9.152 71.68z m77.312 42.048c33.408-56.896 33.408-89.216 33.408-89.216l-92.544 59.456c15.616 4.352 59.136 29.696 59.136 29.696z m21.12 0c43.904-22.784 138.88-49.024 138.88-49.024-20.224-14.016-115.2-40.192-115.2-40.192 0.896 13.056-23.68 89.152-23.68 89.152z m0 12.16c28.672 16.64 58.88 64.768 58.88 64.768 55.36-54.208 88.768-116.352 88.768-116.352-13.184 0.896-147.648 51.648-147.648 51.648z m162.56-51.584c-13.184 35.008-80 112-80 112 34.304-14.016 181.952-26.24 181.952-26.24-13.12-27.136-101.888-85.76-101.888-85.76z m-285.824 20.16c-18.624-12.224-60.992-22.72-60.992-22.72 4.736 2.56 5.632 75.2 5.632 75.2 18.56-17.344 37.056-34.816 55.36-52.48z m8.064 14.848c-6.144 5.248-63.488 52.48-63.488 52.48 9.536 6.144 30.976 24.512 30.976 24.512 22.848-28.928 32.512-76.992 32.512-76.992z m16.768-8.768c0.832 13.12-20.288 70.848-20.288 70.848l75.648-41.088-55.36-29.76z m-40.448 98.816c8.768 7.04 15.616 51.648 15.616 51.648 7.68-11.392 80.192-103.168 80.192-103.168-57.152 33.216-95.808 51.52-95.808 51.52z m117.76-52.48c-4.416 10.496-81.728 96.256-81.728 96.256 20.416-7.872 146.752-47.232 146.752-47.232-16.64-25.344-65.024-48.96-65.024-48.96zM437.312 483.136c-6.08 10.496-112.576 97.92-112.576 97.92 16.768-11.328 127.488-61.184 127.488-61.184 1.728-26.24-14.912-36.736-14.912-36.736z m-59.84 16.512c21.12-13.248 46.592-35.776 46.592-35.776-7.04-8.704-21.952-13.056-21.952-13.056-0.896 7.808-24.576 48.832-24.576 48.832z m42.24-10.368c-38.016 16.128-70.4 45.888-70.4 45.888l-35.136 45.952 105.472-91.84z m152 10.368l-67.648 22.848s52.736 31.488 72.064 39.36c0 0 1.728-38.72-4.416-62.208z m-1.728 72.704l-78.208-46.336s2.816 66.496-8.32 92.736c0 0 75.136-35.072 86.528-46.4z m-86.464 61.248s42.496 32.32 82.048 41.984c0 0 16.32-43.776 10.816-91.008 0 0-73.92 43.776-92.864 49.024zM472.32 532.096l-59.904 24.448c18.944 44.544 49.408 62.08 49.408 62.08 19.328-45.44 10.56-86.528 10.56-86.528z m-71.68 29.696c2.304 11.392-58.368 113.664-58.368 113.664 77.312-23.552 110.016-45.44 110.016-45.44-44.736-40.256-51.584-68.224-51.584-68.224z m-28.48 10.496c-10.56 3.52-64.192 31.488-64.192 31.488 1.792 51.648 13.184 65.6 13.184 65.6 25.536-25.408 51.008-97.088 51.008-97.088z m-49.408 136.448l-72.768 93.44 3.84 5.184 135.616-49.28c-34.624-19.072-66.688-49.344-66.688-49.344z m-60.672 100.352c32.064 29.44 88.32 37.12 88.32 37.12l49.408-74.368-137.728 37.248z m157.44-37.248c0.704 5.184-62.08 81.28-62.08 81.28 39.808-1.92 178.432-55.296 178.432-55.296-58.816-0.896-116.352-25.984-116.352-25.984z m90.304 105.6c8.64-10.368 29.696-70.08 29.696-70.08-69.888 29.44-154.432 45.76-154.432 45.76 28.288 16.384 124.736 24.32 124.736 24.32zM414.08 750.72c28.672-43.072 40.576-98.304 40.576-98.304-11.136 7.808-112.832 41.6-112.832 41.6a191.36 191.36 0 0 0 72.256 56.64z m21.312-10.88c21.632 0.832 131.2-52.8 131.2-52.8-23.808-5.184-87.872-38.976-87.872-38.976l-43.328 91.776z m-8.64 18.176c15.552 18.176 112.832 35.456 112.832 35.456 16.192-20.288 27.008-99.52 27.008-99.52-4.736 9.536-139.84 64-139.84 64zM289.6 619.008c-86.848 38.592-97.472 96.832-97.472 96.832 16 0 115.2-28.736 115.2-28.736-19.456-41.856-17.728-68.096-17.728-68.096zM192.128 723.2s-4.48 36.928 44.288 68.096c0 0 62.08-74.688 66.496-89.472 0 0-81.536 21.376-110.784 21.376z"
          fill="#FFFFFF"/>
</svg>