<svg xmlns="http://www.w3.org/2000/svg" width="200" height="200" viewBox="0 0 1024 1024">
    <path d="M0 0h1024v1024H0z" fill="#0E5A87"/>
    <path d="M825.39008 703.72352c-40.448-1.01888-71.80288 3.03616-98.09408 14.15168-7.58784 3.03616-19.72224 3.03616-20.736 12.6464 4.04992 4.04992 4.55168 10.61888 8.09472 16.1792 6.0672 10.11712 16.68608 23.77216 26.29632 30.848 10.61888 8.08448 21.23776 16.1792 32.3584 23.26016 19.72224 12.1344 41.97376 19.21024 61.18912 31.34976 11.12576 7.07584 22.2464 16.1792 33.37216 23.76704 5.56032 4.0448 9.09824 10.61888 16.1792 13.14816v-1.52064c-3.54304-4.55168-4.55168-11.12576-8.0896-16.1792-5.05344-5.05856-10.11712-9.61024-15.17056-14.66368-14.66368-19.72224-32.86528-36.9152-52.59264-51.07712-16.1792-11.12064-51.57376-26.2912-58.14784-44.99968l-1.00864-1.01376c11.12576-1.00864 24.2688-5.05344 34.8928-8.0896 17.18784-4.55168 32.8704-3.53792 50.56512-8.0896 8.08448-2.0224 16.1792-4.55168 24.2688-7.08096v-4.55168c-9.09824-9.09824-15.67232-21.23264-25.28256-29.82912-25.78432-22.25152-54.10304-44.00128-83.4304-62.19776-15.67744-10.11712-35.90656-16.6912-52.59264-25.28256-6.0672-3.03616-16.18432-4.55168-19.71712-9.61024-9.10336-11.12576-14.1568-25.78432-20.736-38.9376-14.65856-27.81184-28.8256-58.65472-41.46176-87.98208-9.10336-19.72224-14.66368-39.44448-25.78432-57.6512-52.09088-85.9648-108.71808-138.04032-195.69664-189.11744-18.7136-10.61888-40.96-15.17056-64.72704-20.73088-12.63616-0.50688-25.27744-1.51552-37.91872-2.0224-8.0896-3.53792-16.1792-13.14816-23.26528-17.69984-28.82048-18.2016-103.15264-57.6512-124.3904-5.56032-13.65504 32.8704 20.224 65.2288 31.85664 81.92 8.6016 11.6224 19.72224 24.77056 25.78944 37.91872 3.53792 8.59136 4.55168 17.69984 8.0896 26.8032 8.0896 22.2464 15.67232 47.02208 26.29632 67.75808 5.56032 10.61888 11.62752 21.73952 18.70848 31.34464 4.0448 5.56544 11.12064 8.0896 12.64128 17.19296-7.08096 10.11712-7.58784 25.28256-11.63264 37.92896-18.2016 57.1392-11.12064 127.92832 14.66368 169.90208 8.0896 12.63616 27.31008 40.45312 53.0944 29.82912 22.7584-9.09824 17.69984-37.91872 24.2688-63.2064 1.52064-6.0672 0.512-10.112 3.54304-14.1568v1.01376c7.08096 14.1568 14.1568 27.81184 20.736 41.96864 15.67744 24.77568 42.97728 50.56512 65.73056 67.75808 12.13952 9.09824 21.74464 24.77568 36.9152 30.34112v-1.52064h-1.00864c-3.03616-4.55168-7.58784-6.57408-11.63264-10.112-9.10336-9.10336-19.21536-20.22912-26.29632-30.336-21.23264-28.31872-39.94624-59.66848-56.63232-92.032-8.0896-15.67744-15.17056-32.8704-21.74464-48.54272-3.03616-6.0672-3.03616-15.17056-8.0896-18.20672-7.58784 11.12576-18.70848 20.73088-24.2688 34.38592-9.61024 21.74464-10.61888 48.54272-14.16192 76.35456-2.02752 0.50688-1.01376 0-2.02752 1.00864-16.1792-4.0448-21.73952-20.73088-27.81184-34.8928-15.16544-35.90144-17.69472-93.54752-4.54656-135.00928 3.53792-10.61376 18.7136-43.99104 12.6464-54.10304-3.04128-9.60512-13.15328-15.17056-18.7136-22.7584-6.57408-9.60512-13.65504-21.73952-18.2016-32.3584-12.13952-28.3136-18.21184-59.66848-31.35488-87.9872-6.0672-13.14304-16.6912-26.8032-25.28256-38.93248-9.60512-13.65504-20.224-23.26528-27.81184-39.44448-2.52416-5.56032-6.0672-14.66368-2.0224-20.736 1.01376-4.03968 3.03616-5.5552 7.08096-6.56896 6.57408-5.56544 25.28256 1.51552 31.85664 4.54656 18.70848 7.58784 34.38592 14.6688 50.05824 25.28768 7.08096 5.05856 14.66368 14.66368 23.76704 17.18784h10.61888c16.1792 3.54304 34.38592 1.01888 49.55136 5.56544 26.8032 8.6016 51.07712 21.23776 72.82176 34.8928 66.23744 41.96864 120.84736 101.63712 157.76256 172.93824 6.0672 11.62752 8.59136 22.25152 14.16192 34.38592 10.61376 24.7808 23.76192 50.05824 34.3808 74.32704 10.61888 23.76704 20.73088 48.04096 35.90144 67.7632 7.58272 10.61376 37.92384 16.1792 51.57376 21.74464 10.11712 4.54656 25.78944 8.59648 34.8928 14.1568 17.19296 10.61376 34.38592 22.75328 50.57024 34.3808 8.0896 6.07232 33.37216 18.7136 34.88768 28.8256v0.01024z"
          fill="#FFFFFF"/>
</svg>