<svg xmlns="http://www.w3.org/2000/svg" width="200" height="200" viewBox="0 0 1024 1024">
    <path d="M0 0v1024h1024V0z" fill="#D22227"/>
    <path d="M650.24 281.6c128 0 230.4 102.4 230.4 230.4 0 61.44-23.04 120.32-66.56 163.84-43.52 43.52-102.4 66.56-163.84 66.56H373.76c-128 0-230.4-102.4-230.4-230.4s102.4-230.4 230.4-230.4h276.48z m0 92.16H373.76c-76.8 0-138.24 61.44-138.24 138.24 0 76.8 61.44 138.24 138.24 138.24h276.48c76.8 0 138.24-61.44 138.24-138.24 0-76.8-61.44-138.24-138.24-138.24z"
          fill="#FFFFFF"/>
</svg>