<svg xmlns="http://www.w3.org/2000/svg" width="200" height="200" viewBox="0 0 1024 1024">
    <path d="M-70.54222222-70.54222222h1165.08444444v1165.08444444H-70.54222222z" fill="#1485B1"/>
    <path d="M657.63555555 218.98126222c36.11761778 26.2144 73.98286222 73.98286222 85.05116445 124.66403556 5.82542222 22.71914667-3.49525333 56.50659555-7.57304889 75.73048889-5.82542222 30.29219555 11.65084445 58.83676445 5.82542222 90.87658666-1.74762667 15.14609778-16.89372445 47.18592-11.65084444 51.26371556v-1.74762667c9.32067555-9.32067555 15.14609778-24.46677333 22.71914666-37.86524444 28.54456889-48.93354667 51.26371555-107.77031111 64.07964445-171.84995556 5.82542222-24.46677333 11.65084445-66.40981333 1.74762667-89.12896-5.82542222-11.06830222-16.89372445-22.71914667-26.2144-30.29219555-37.86524445-28.54456889-73.98286222-43.69066667-141.55776-43.69066667l-33.78744889 5.82542222 1.74762667 1.74762667c13.39847111 9.32067555 28.54456889 14.56355555 39.6128711 24.46677333zM383.25816889 502.67932445c7.57304889 37.86524445 32.03982222 69.90506667 75.73048889 69.90506666l11.65084444-37.86524444c7.57304889-16.89372445 15.14609778-32.03982222 18.64135111-51.26371556 9.32067555-30.29219555 1.74762667-104.27505778-16.89372444-117.09098666-7.57304889-5.82542222-16.89372445-5.82542222-30.29219556-5.82542223l-30.29219555 7.57304889c-9.32067555 5.82542222-18.64135111 9.32067555-26.2144 15.14609778l1.74762667 58.83676444c-4.07779555 18.64135111-7.57304889 41.36049778-4.07779556 60.58439112zM436.26951111 381.51054222l7.57304889-3.49525333c15.14609778 0 22.71914667 1.74762667 30.29219555 7.57304889l-1.74762666 5.82542222c-7.57304889 16.89372445-36.11761778 9.32067555-37.86524444-9.32067555l1.74762666-0.58254223zM756.08519111 606.37184c-11.65084445-1.74762667-18.64135111-9.32067555-28.54456889-11.65084445-13.39847111 7.57304889-18.64135111 9.32067555-18.64135111 30.29219556 33.78744889 16.89372445 98.44963555-5.82542222 111.84810667-24.46677333-20.97152 2.33016889-43.69066667 9.90321778-64.66218667 5.82542222z"
          fill="#FFFFFF"/>
    <path d="M659.38318222 373.93749333c-7.57304889 11.65084445-5.82542222 37.86524445-1.74762667 51.26371556 11.65084445 33.78744889 26.2144 62.33201778 43.69066667 90.87658666l11.65084445 22.71914667c1.16508445 0 1.74762667-0.58254222 1.74762666-1.74762667 3.49525333-16.89372445 11.65084445-33.78744889 7.57304889-56.50659555l-5.82542222-58.83676445 7.57304889-62.33201777c-26.79694222-2.33016889-53.01134222-2.33016889-64.66218667 14.56355555z m26.79694223 20.97152c-9.32067555-3.49525333-13.39847111-5.82542222-18.64135112-11.65084444 0-5.82542222 1.74762667-5.82542222 3.49525334-7.57304889 3.49525333-1.74762667 7.57304889-5.82542222 18.64135111-5.82542222 7.57304889 1.74762667 11.65084445 3.49525333 15.14609777 7.57304889-7.57304889 11.65084445-11.06830222 11.65084445-18.6413511 17.47626666zM481.70780445 598.79879111l-32.03982223 33.78744889c-13.39847111 9.32067555-37.86524445 11.65084445-54.75896889 16.89372445l1.74762667 1.74762666c37.86524445 13.39847111 68.15744 9.32067555 94.37184-11.65084444 11.65084445-12.23338667 17.47626667-40.77795555-9.32067555-40.77795556z"
          fill="#FFFFFF"/>
    <path d="M638.99420445 424.61866667c-20.97152-68.15744 15.14609778-94.37184 81.5559111-90.87658667-28.54456889-75.73048889-89.12896-139.81013333-196.8992711-139.81013333l-18.64135112 1.74762666-33.78744888 9.32067556c-51.26371555 22.71914667-81.55591111 85.05116445-85.05116445 153.20860444 12.23338667-6.40796445 25.04931555-11.06830222 37.86524445-15.14609778 68.15744-18.64135111 79.22574222 24.46677333 86.7987911 77.47811556 4.07779555 20.97152 4.07779555 48.93354667-1.74762666 68.15744-3.49525333 16.89372445-11.65084445 30.29219555-16.89372444 45.43829334l-15.14609778 45.43829333h1.74762666c7.57304889-1.74762667 13.39847111 1.74762667 18.64135112 1.74762667 28.54456889 11.65084445 24.46677333 37.86524445 24.46677333 75.73048888 0 68.15744-9.32067555 162.52928 45.43829333 177.67537778 16.89372445 5.82542222 33.78744889-1.74762667 47.18592-5.82542222 68.15744-20.97152 54.75896889-101.94488889 68.15744-177.67537778 3.49525333-18.64135111-1.74762667-45.43829333 7.57304889-60.58439111 5.82542222-9.32067555 15.14609778-11.65084445 24.46677333-18.64135111-28.54456889-44.85575111-60.58439111-92.04167111-75.73048888-147.38318222z"
          fill="#FFFFFF"/>
    <path d="M362.86919111 475.88238222L366.36444445 436.26951111l-1.74762667-73.98286222c11.65084445-75.73048889 20.97152-101.94488889 56.50659555-149.13080889v-1.74762667c-30.29219555-3.49525333-60.58439111-15.14609778-100.19726222-15.14609778l-36.11761778 3.49525334c-32.03982222 7.57304889-58.25422222 26.79694222-71.65269333 54.75896889-37.86524445 86.79879111 16.89372445 251.65824 45.43829333 319.81568 9.32067555 22.71914667 28.54456889 68.15744 54.75896889 73.98286222 13.39847111 3.49525333 20.97152-7.57304889 26.2144-11.65084445L398.40426667 570.25422222c-18.64135111-20.38897778-43.10812445-47.18592-35.53507556-94.37184z"
          fill="#FFFFFF"/>
</svg>