<svg xmlns="http://www.w3.org/2000/svg" width="200" height="200" viewBox="0 0 1024 1024">
    <path d="M34.13333333-34.13333333h955.73333334q68.26666667 0 68.26666666 68.26666666v955.73333334q0 68.26666667-68.26666666 68.26666666H34.13333333q-68.26666667 0-68.26666666-68.26666666V34.13333333Q-34.13333333-34.13333333 34.13333333-34.13333333z"
          fill="#DE5858"/>
    <path d="M823.94453333 574.42986667c-0.27306667 5.87093333-8.12373333 12.45866667-24.30293333 20.82133333-33.31413333 17.13493333-205.89226667 87.31306667-242.61973333 106.22293333-36.72746667 18.90986667-57.1392 18.7392-86.15253334 5.0176-29.01333333-13.7216-212.65066667-87.04-245.72586666-102.67306666-16.52053333-7.81653333-24.91733333-14.40426667-25.22453334-20.61653334v62.3616c0 6.2464 8.704 12.83413333 25.25866667 20.65066667 33.04106667 15.63306667 216.6784 88.95146667 245.69173333 102.67306667 29.01333333 13.7216 49.42506667 13.89226667 86.15253334-5.05173334 36.72746667-18.90986667 209.3056-89.05386667 242.61973333-106.22293333 16.93013333-8.704 24.43946667-15.49653333 24.43946667-21.64053333V574.464l-0.13653334-0.03413333z"
          fill="#FFFFFF"/>
    <path d="M823.9104 472.2688c-0.23893333 5.90506667-8.12373333 12.45866667-24.2688 20.82133333-33.31413333 17.13493333-205.89226667 87.31306667-242.61973333 106.22293334-36.72746667 18.944-57.1392 18.77333333-86.15253334 5.05173333-29.01333333-13.68746667-212.65066667-87.04-245.72586666-102.7072-16.52053333-7.7824-24.91733333-14.37013333-25.22453334-20.5824v62.3616c0 6.2464 8.704 12.83413333 25.25866667 20.65066667 33.04106667 15.63306667 216.6784 88.95146667 245.69173333 102.63893333 29.01333333 13.75573333 49.42506667 13.9264 86.15253334-4.98346667 36.72746667-18.944 209.3056-89.088 242.61973333-106.25706666 16.93013333-8.73813333 24.43946667-15.53066667 24.43946667-21.67466667v-61.50826667h-0.17066667z"
          fill="#FFFFFF"/>
    <path d="M823.9104 363.4176c0.3072-6.31466667-7.9872-11.84426667-24.71253333-17.95413333-32.42666667-11.81013333-203.94666667-79.6672-236.81706667-91.648-32.83626667-11.94666667-46.21653333-11.43466667-84.75306667 2.3552-38.67306667 13.7216-221.2864 84.92373333-253.78133333 97.55306666-16.24746667 6.3488-24.1664 12.21973333-23.89333333 18.46613334v62.73706666c0 6.2464 8.66986667 12.86826667 25.22453333 20.71893334 33.0752 15.70133333 216.6784 89.4976 245.69173333 103.25333333 29.01333333 13.78986667 49.42506667 13.99466667 86.15253334-5.05173333 36.72746667-19.0464 209.3056-89.56586667 242.61973333-106.83733334 16.93013333-8.77226667 24.43946667-15.59893333 24.43946667-21.77706666v-61.81546667h-0.2048z m-400.4864 59.392l144.62293333-22.1184-43.69066666 63.6928-100.93226667-41.60853333z m319.86346667-57.344l-85.53813334 33.5872-9.28426666 3.61813333-85.46986667-33.62133333 94.72-37.20533333 85.57226667 33.5872zM492.20266667 303.8208L478.208 278.18666667l43.65653333 16.93013333 41.13066667-13.38026667-11.12746667 26.48746667 41.91573334 15.63306667-54.0672 5.56373333-12.11733334 28.94506667-19.5584-32.256-62.39573333-5.59786667 46.55786667-16.72533333z m-107.7248 36.18133333c42.66666667 0 77.27786667 13.312 77.27786666 29.76426667 0 16.41813333-34.57706667 29.76426667-77.27786666 29.76426667-42.73493333 0-77.34613333-13.34613333-77.34613334-29.76426667 0-16.45226667 34.6112-29.7984 77.34613334-29.7984v0.03413333z"
          fill="#FFFFFF"/>
</svg>