<?xml version="1.0" standalone="no"?><!DOCTYPE svg PUBLIC "-//W3C//DTD SVG 1.1//EN" "http://www.w3.org/Graphics/SVG/1.1/DTD/svg11.dtd"><svg t="1765508753325" class="icon" viewBox="0 0 1024 1024" version="1.1" xmlns="http://www.w3.org/2000/svg" p-id="3843" xmlns:xlink="http://www.w3.org/1999/xlink" width="48" height="48"><path d="M161.2805 512.103899c0-200.851856 162.630181-363.644878 363.209303-363.644879 99.452878 0 189.591852 39.998939 255.222759 104.905554l-79.682185 61.441998c-6.340808 4.889225-4.252847 14.942408 3.509572 16.897498l225.471813 56.805526c6.010131 1.513522 11.853424-2.992078 11.923356-9.193022l2.594466-232.665788c0.088913-8.010178-9.092121-12.593701-15.431929-7.704476l-81.472437 62.82265C765.330607 117.222525 651.064195 64.539973 524.489803 64.539973 277.56594 64.539973 77.42439 264.938271 77.42439 512.103899c0 247.165627 200.141549 447.562927 447.065413 447.562926 195.228347 0 361.114349-125.250685 422.085807-299.717307l-79.154701-27.703945c-49.578583 141.86546-184.459863 243.503204-342.931106 243.503204-200.579122 0-363.209303-162.794021-363.209303-363.644878z" p-id="3844"></path></svg>