<?xml version="1.0" standalone="no"?><!DOCTYPE svg PUBLIC "-//W3C//DTD SVG 1.1//EN" "http://www.w3.org/Graphics/SVG/1.1/DTD/svg11.dtd"><svg t="1766242578036" class="icon" viewBox="0 0 1024 1024" version="1.1" xmlns="http://www.w3.org/2000/svg" p-id="4996" xmlns:xlink="http://www.w3.org/1999/xlink" width="48" height="48"><path d="M384.124878 464.371512h79.921951v239.647969h-79.921951V464.371512zM637.877073 464.371512h-79.921951v239.647969h79.921951V464.371512z" p-id="4997"></path><path d="M298.20878 255.886111v-71.498177c0-39.706224 32.20455-71.893791 71.929757-71.893792h283.722926c39.726205 0 71.929756 32.187567 71.929757 71.893792v71.498177h185.818536v79.88199h-91.910244v504.050763c0 39.706224-32.203551 71.89479-71.929756 71.894791H276.230244c-39.726205 0-71.929756-32.188566-71.929756-71.894791V335.768101h-91.910244v-79.88199h185.818536z m79.921952 0h267.738536v-63.509978H378.130732v63.509978z m361.646829 80.674217H284.222439v495.270337h455.555122V336.560328z" p-id="4998"></path></svg>