<svg xmlns="http://www.w3.org/2000/svg" width="200" height="200" viewBox="0 0 1024 1024">
    <path d="M-70.54222222-70.54222222m194.18074112 0l776.7229622 0q194.18074112 0 194.18074112 194.18074112l0 776.7229622q0 194.18074112-194.18074112 194.18074112l-776.7229622 0q-194.18074112 0-194.18074112-194.18074112l0-776.7229622q0-194.18074112 194.18074112-194.18074112Z"
          fill="#42CAC7"/>
    <path d="M794.48443221 140.48369778c-33.39908779-29.7581989-73.7886811-17.62190222-113.69282332 17.62190222a281.27080334 281.27080334 0 0 0-17.71899222 17.33063111 398.60451555 398.60451555 0 0 0-27.28239445 32.52527446 78.59465443 78.59465443 0 0 0-30.09801443-5.97105778h-330.73834667a79.75973888 79.75973888 0 0 0-79.27428779 79.46846776v330.78689224a79.75973888 79.75973888 0 0 0 79.51701334 79.51701333h232.43434666c2.81562112 15.43736889 4.41761223 26.40858112 4.41761224 26.40857998s0 2.86416555 0.53399665 7.28177778a725.94469888 725.94469888 0 0 0 1.79617223 88.88623445 315.25243221 315.25243221 0 0 0 16.26263666 86.02206777l4.8545189-2.71852999a384.47786667 384.47786667 0 0 1-13.25283556-128.40201444 978.52529778 978.52529778 0 0 1 53.88515556-268.74614556 786.432 786.432 0 0 1 203.88977778-321.85457778c-64.51655111 58.25422222-151.84933888 246.90081223-178.01519446 316.75733334a1266.64097223 1266.64097223 0 0 0-62.5261989 221.94858666 172.28686222 172.28686222 0 0 1 91.31349334-94.46892999s33.98163001-42.18576555 74.17704334-102.43034112a726.33306112 726.33306112 0 0 0-76.4101211 20.34043221c-19.41807445 8.15559111-24.66095445 10.92266667-24.66095446 10.92266667a663.85540779 663.85540779 0 0 1 116.89680555-55.68132665c74.27413333-116.75116999 155.15041223-282.87279445 73.69159111-355.54493667z m-282.63006776 343.7970011a282.53297778 282.53297778 0 0 1 17.57335665 50.53553778q1.40780999 5.29142557 2.66998557 10.63139555c1.74762667 7.33032334 2.66998557 12.08775111 2.66998556 12.08775112s-0.63108779-2.33016889-3.10689223-9.70903666l-1.65053667-4.8545189-1.06799332-2.62144a597.68832 597.68832 0 0 0-22.18515001-41.70031332c-4.8545189 13.68974222-8.73813333 26.45712555-12.13629667 38.01088a336.51522333 336.51522333 0 0 1 25.1949511 77.67229554s-0.82526777-3.20398222-4.85451776-14.27228444a529.1425189 529.1425189 0 0 0-25.00077112-47.38009998 111.99374222 111.99374222 0 0 0-7.33032221 47.81700664 129.32437333 129.32437333 0 0 1 10.63139556 27.33094002h-218.45333333a16.1170011 16.1170011 0 0 1-15.92282112-15.92282112v-330.44707556a16.1170011 16.1170011 0 0 1 15.92282112-15.92282112h322.7283911a736.57609443 736.57609443 0 0 0-85.68225222 218.74460445z"
          fill="#FFFFFF"/>
</svg>