<?xml version="1.0" standalone="no"?><!DOCTYPE svg PUBLIC "-//W3C//DTD SVG 1.1//EN" "http://www.w3.org/Graphics/SVG/1.1/DTD/svg11.dtd"><svg t="1774002244863" class="icon" viewBox="0 0 1024 1024" version="1.1" xmlns="http://www.w3.org/2000/svg" p-id="7714" xmlns:xlink="http://www.w3.org/1999/xlink" width="48" height="48"><path d="M792.32 741.12h-98.56a38.4 38.4 0 0 1 0-76.8h98.56a154.88 154.88 0 0 0 16-308.48l-31.36-3.2v-31.36A265.6 265.6 0 0 0 512 76.8 265.6 265.6 0 0 0 256 320v32h-32a154.88 154.88 0 0 0 14.72 309.12h92.16a38.4 38.4 0 1 1 0 76.8H232.96a231.68 231.68 0 0 1-52.48-456.96A342.4 342.4 0 0 1 512 0a342.4 342.4 0 0 1 332.8 284.16 231.68 231.68 0 0 1-53.76 456.96z" fill="#5A607F" p-id="7715"></path><path d="M512 492.8a38.4 38.4 0 0 0-38.4 38.4v341.76a38.4 38.4 0 0 0 38.4 38.4 38.4 38.4 0 0 0 38.4-38.4V531.2a38.4 38.4 0 0 0-38.4-38.4z" fill="#5A607F" p-id="7716"></path><path d="M512 415.36a38.4 38.4 0 0 0-26.88 10.88L380.8 531.84a38.4 38.4 0 0 0 0 53.76H384a38.4 38.4 0 0 0 53.76 0l103.04-103.68a38.4 38.4 0 0 0 0-53.76 38.4 38.4 0 0 0-28.8-12.8z" fill="#5A607F" p-id="7717"></path><path d="M512 415.36a38.4 38.4 0 0 0-26.88 10.88 38.4 38.4 0 0 0 0 53.76l105.6 106.88a38.4 38.4 0 0 0 53.76 0 38.4 38.4 0 0 0 0-53.76L540.8 426.88A38.4 38.4 0 0 0 512 415.36zM886.4 1024H137.6a38.4 38.4 0 1 1 0-76.8h748.8a38.4 38.4 0 1 1 0 76.8z" fill="#5A607F" p-id="7718"></path></svg>